<svg xmlns="http://www.w3.org/2000/svg" width="86" height="78" viewBox="0 0 86 78" fill="none"><rect x="0.5" y="0.5" width="69" height="67" rx="11.5" fill="#161617"></rect><path d="M18.36 42L18.98 38.82H17.92V36.7H19.38L20.14 33.04H18.38V30.92H20.56L21.18 27.9H23.48L22.86 30.92H24.74L25.36 27.9H27.64L27.04 30.92H28.08V33.04H26.6L25.86 36.7H27.64V38.82H25.44L24.8 42H22.5L23.14 38.82H21.28L20.68 42H18.36ZM21.7 36.7H23.56L24.28 33.04H22.44L21.7 36.7ZM34.9922 42.22C33.2589 42.22 31.9255 41.5867 30.9922 40.32C30.0722 39.04 29.6122 37.2333 29.6122 34.9C29.6122 32.54 30.0722 30.7467 30.9922 29.52C31.9255 28.2933 33.2589 27.68 34.9922 27.68C36.7389 27.68 38.0722 28.2933 38.9922 29.52C39.9122 30.7467 40.3722 32.5333 40.3722 34.88C40.3722 37.2267 39.9055 39.04 38.9722 40.32C38.0522 41.5867 36.7255 42.22 34.9922 42.22ZM34.9922 39.28C35.6322 39.28 36.1055 38.9333 36.4122 38.24C36.7322 37.5467 36.8922 36.4333 36.8922 34.9C36.8922 33.3533 36.7322 32.2533 36.4122 31.6C36.1055 30.9333 35.6322 30.6 34.9922 30.6C34.3522 30.6 33.8722 30.9333 33.5522 31.6C33.2455 32.2533 33.0922 33.3467 33.0922 34.88C33.0922 36.4267 33.2455 37.5467 33.5522 38.24C33.8722 38.9333 34.3522 39.28 34.9922 39.28ZM46.5844 42.22C45.5844 42.22 44.6177 42.0867 43.6844 41.82C42.7644 41.54 42.0244 41.1667 41.4644 40.7L42.5844 37.98C43.171 38.3933 43.791 38.7 44.4444 38.9C45.0977 39.1 45.771 39.2 46.4644 39.2C47.1844 39.2 47.7244 39.08 48.0844 38.84C48.4444 38.5867 48.6244 38.2133 48.6244 37.72C48.6244 37.2533 48.4577 36.9067 48.1244 36.68C47.8044 36.4533 47.3244 36.34 46.6844 36.34H44.2044V33.46H46.3244C46.8977 33.46 47.351 33.34 47.6844 33.1C48.0177 32.8467 48.1844 32.4933 48.1844 32.04C48.1844 31.6 48.0244 31.2667 47.7044 31.04C47.3844 30.8133 46.9177 30.7 46.3044 30.7C45.0244 30.7 43.8644 31.1067 42.8244 31.92L41.7044 29.24C42.3044 28.7467 43.0444 28.3667 43.9244 28.1C44.8044 27.82 45.7177 27.68 46.6644 27.68C48.2377 27.68 49.471 28.0267 50.3644 28.72C51.2577 29.4 51.7044 30.3467 51.7044 31.56C51.7044 32.3733 51.471 33.0733 51.0044 33.66C50.551 34.2467 49.9244 34.6333 49.1244 34.82V34.54C50.0577 34.6867 50.791 35.08 51.3244 35.72C51.8577 36.3467 52.1244 37.1333 52.1244 38.08C52.1244 39.36 51.631 40.3733 50.6444 41.12C49.6577 41.8533 48.3044 42.22 46.5844 42.22Z" fill="white"></path><rect x="0.5" y="0.5" width="69" height="67" rx="11.5" stroke="white"></rect><circle cx="70.5" cy="61.5" r="6.5" fill="white"></circle><path d="M64.8734 75.0001L62.9401 71.7334L59.2734 70.9334C58.9401 70.8667 58.6734 70.6943 58.4734 70.4161C58.2734 70.1378 58.1957 69.8325 58.2401 69.5001L58.6068 65.7334L56.1068 62.8667C55.8845 62.6223 55.7734 62.3334 55.7734 62.0001C55.7734 61.6667 55.8845 61.3778 56.1068 61.1334L58.6068 58.2667L58.2401 54.5001C58.1957 54.1667 58.2734 53.8609 58.4734 53.5827C58.6734 53.3045 58.9401 53.1325 59.2734 53.0667L62.9401 52.2667L64.8734 49.0001C65.0512 48.7112 65.2957 48.5165 65.6068 48.4161C65.9179 48.3156 66.229 48.3325 66.5401 48.4667L70.0068 49.9334L73.4734 48.4667C73.7845 48.3334 74.0957 48.3165 74.4068 48.4161C74.7179 48.5156 74.9623 48.7103 75.1401 49.0001L77.0734 52.2667L80.7401 53.0667C81.0734 53.1334 81.3401 53.3058 81.5401 53.5841C81.7401 53.8623 81.8179 54.1676 81.7734 54.5001L81.4068 58.2667L83.9068 61.1334C84.129 61.3778 84.2401 61.6667 84.2401 62.0001C84.2401 62.3334 84.129 62.6223 83.9068 62.8667L81.4068 65.7334L81.7734 69.5001C81.8179 69.8334 81.7401 70.1392 81.5401 70.4174C81.3401 70.6956 81.0734 70.8676 80.7401 70.9334L77.0734 71.7334L75.1401 75.0001C74.9623 75.2889 74.7179 75.4836 74.4068 75.5841C74.0957 75.6845 73.7845 75.6676 73.4734 75.5334L70.0068 74.0667L66.5401 75.5334C66.229 75.6667 65.9179 75.6836 65.6068 75.5841C65.2957 75.4845 65.0512 75.2898 64.8734 75.0001ZM68.6068 62.9334L66.6734 61.0334C66.429 60.7889 66.1232 60.6667 65.7561 60.6667C65.389 60.6667 65.0725 60.8001 64.8068 61.0667C64.5623 61.3112 64.4401 61.6223 64.4401 62.0001C64.4401 62.3778 64.5623 62.6889 64.8068 62.9334L67.6734 65.8001C67.9401 66.0667 68.2512 66.2001 68.6068 66.2001C68.9623 66.2001 69.2734 66.0667 69.5401 65.8001L75.2068 60.1334C75.4734 59.8667 75.601 59.5556 75.5894 59.2001C75.5779 58.8445 75.4503 58.5334 75.2068 58.2667C74.9401 58.0001 74.6232 57.8614 74.2561 57.8507C73.889 57.8401 73.5725 57.9676 73.3068 58.2334L68.6068 62.9334Z" fill="#008DDD"></path></svg>