<svg xmlns="http://www.w3.org/2000/svg" width="86" height="84" viewBox="0 0 86 84" fill="none"><rect x="0.5" y="0.5" width="69" height="67" rx="11.5" fill="#161617"></rect><path d="M18.36 42L18.98 38.82H17.92V36.7H19.38L20.14 33.04H18.38V30.92H20.56L21.18 27.9H23.48L22.86 30.92H24.74L25.36 27.9H27.64L27.04 30.92H28.08V33.04H26.6L25.86 36.7H27.64V38.82H25.44L24.8 42H22.5L23.14 38.82H21.28L20.68 42H18.36ZM21.7 36.7H23.56L24.28 33.04H22.44L21.7 36.7ZM34.9922 42.22C33.2589 42.22 31.9255 41.5867 30.9922 40.32C30.0722 39.04 29.6122 37.2333 29.6122 34.9C29.6122 32.54 30.0722 30.7467 30.9922 29.52C31.9255 28.2933 33.2589 27.68 34.9922 27.68C36.7389 27.68 38.0722 28.2933 38.9922 29.52C39.9122 30.7467 40.3722 32.5333 40.3722 34.88C40.3722 37.2267 39.9055 39.04 38.9722 40.32C38.0522 41.5867 36.7255 42.22 34.9922 42.22ZM34.9922 39.28C35.6322 39.28 36.1055 38.9333 36.4122 38.24C36.7322 37.5467 36.8922 36.4333 36.8922 34.9C36.8922 33.3533 36.7322 32.2533 36.4122 31.6C36.1055 30.9333 35.6322 30.6 34.9922 30.6C34.3522 30.6 33.8722 30.9333 33.5522 31.6C33.2455 32.2533 33.0922 33.3467 33.0922 34.88C33.0922 36.4267 33.2455 37.5467 33.5522 38.24C33.8722 38.9333 34.3522 39.28 34.9922 39.28ZM42.3444 42V39.3L46.6244 34.84C47.1444 34.3067 47.5177 33.84 47.7444 33.44C47.971 33.04 48.0844 32.6333 48.0844 32.22C48.0844 31.7133 47.911 31.3333 47.5644 31.08C47.231 30.8267 46.7444 30.7 46.1044 30.7C45.571 30.7 45.0244 30.8 44.4644 31C43.9177 31.1867 43.3644 31.4933 42.8044 31.92L41.6644 29.24C42.291 28.76 43.0444 28.38 43.9244 28.1C44.8044 27.82 45.711 27.68 46.6444 27.68C48.2844 27.68 49.531 28.0333 50.3844 28.74C51.251 29.4467 51.6844 30.4667 51.6844 31.8C51.6844 32.6533 51.4844 33.4733 51.0844 34.26C50.6977 35.0333 50.051 35.86 49.1444 36.74L45.8644 39.94V39H52.2044V42H42.3444Z" fill="white"></path><rect x="0.5" y="0.5" width="69" height="67" rx="11.5" stroke="white"></rect><circle cx="70.5" cy="67.5" r="6.5" fill="white"></circle><path d="M64.8734 81.0001L62.9401 77.7334L59.2734 76.9334C58.9401 76.8667 58.6734 76.6943 58.4734 76.4161C58.2734 76.1378 58.1957 75.8325 58.2401 75.5001L58.6068 71.7334L56.1068 68.8667C55.8845 68.6223 55.7734 68.3334 55.7734 68.0001C55.7734 67.6667 55.8845 67.3778 56.1068 67.1334L58.6068 64.2667L58.2401 60.5001C58.1957 60.1667 58.2734 59.8609 58.4734 59.5827C58.6734 59.3045 58.9401 59.1325 59.2734 59.0667L62.9401 58.2667L64.8734 55.0001C65.0512 54.7112 65.2957 54.5165 65.6068 54.4161C65.9179 54.3156 66.229 54.3325 66.5401 54.4667L70.0068 55.9334L73.4734 54.4667C73.7845 54.3334 74.0957 54.3165 74.4068 54.4161C74.7179 54.5156 74.9623 54.7103 75.1401 55.0001L77.0734 58.2667L80.7401 59.0667C81.0734 59.1334 81.3401 59.3058 81.5401 59.5841C81.7401 59.8623 81.8179 60.1676 81.7734 60.5001L81.4068 64.2667L83.9068 67.1334C84.129 67.3778 84.2401 67.6667 84.2401 68.0001C84.2401 68.3334 84.129 68.6223 83.9068 68.8667L81.4068 71.7334L81.7734 75.5001C81.8179 75.8334 81.7401 76.1392 81.5401 76.4174C81.3401 76.6956 81.0734 76.8676 80.7401 76.9334L77.0734 77.7334L75.1401 81.0001C74.9623 81.2889 74.7179 81.4836 74.4068 81.5841C74.0957 81.6845 73.7845 81.6676 73.4734 81.5334L70.0068 80.0667L66.5401 81.5334C66.229 81.6667 65.9179 81.6836 65.6068 81.5841C65.2957 81.4845 65.0512 81.2898 64.8734 81.0001ZM68.6068 68.9334L66.6734 67.0334C66.429 66.7889 66.1232 66.6667 65.7561 66.6667C65.389 66.6667 65.0725 66.8001 64.8068 67.0667C64.5623 67.3112 64.4401 67.6223 64.4401 68.0001C64.4401 68.3778 64.5623 68.6889 64.8068 68.9334L67.6734 71.8001C67.9401 72.0667 68.2512 72.2001 68.6068 72.2001C68.9623 72.2001 69.2734 72.0667 69.5401 71.8001L75.2068 66.1334C75.4734 65.8667 75.601 65.5556 75.5894 65.2001C75.5779 64.8445 75.4503 64.5334 75.2068 64.2667C74.9401 64.0001 74.6232 63.8614 74.2561 63.8507C73.889 63.8401 73.5725 63.9676 73.3068 64.2334L68.6068 68.9334Z" fill="#008DDD"></path></svg>