<svg xmlns="http://www.w3.org/2000/svg" width="562" height="46" viewBox="0 0 562 46" fill="none"><rect x="0.695312" width="560.609" height="45.8261" rx="11.4131" fill="url(#paint0_linear_3845_6694)"></rect><path d="M41.2836 30.4131L35.4044 17.338H38.5202L42.9898 27.7981H42.0811L46.5507 17.338H49.5552L43.676 30.4131H41.2836ZM47.9389 30.4131L53.9479 17.338H56.3404L62.4235 30.4131H59.4932L57.9168 26.778L59.0481 27.5755H51.2772L52.4271 26.778L50.8507 30.4131H47.9389ZM55.1349 20.3796L52.7424 26.0547L52.2416 25.35H58.0837L57.6572 26.0547L55.209 20.3796H55.1349ZM63.5509 30.4131V17.338H66.4442V27.9835H72.3419V30.4131H63.5509ZM79.1861 30.6171C77.2697 30.6171 75.8416 30.1411 74.902 29.189C73.9623 28.237 73.4925 26.8213 73.4925 24.9419V17.338H76.3857V24.9605C76.3857 26.0114 76.6082 26.8089 77.0533 27.353C77.5108 27.897 78.2217 28.169 79.1861 28.169C80.1258 28.169 80.8244 27.897 81.2819 27.353C81.7517 26.8089 81.9866 26.0114 81.9866 24.9605V17.338H84.8428V24.9419C84.8428 26.8213 84.3667 28.237 83.4147 29.189C82.475 30.1411 81.0655 30.6171 79.1861 30.6171ZM87.4039 30.4131V17.338H96.4915V19.5821H90.1673V22.6422H96.0464V24.9049H90.1673V28.169H96.4915V30.4131H87.4039ZM99.5961 33.0837L98.5019 32.2121C98.9347 31.7793 99.2438 31.3713 99.4292 30.988C99.6147 30.6047 99.7074 30.1905 99.7074 29.7454L100.301 30.4131H98.2608V27.4457H101.265V29.356C101.265 30.0607 101.142 30.7036 100.894 31.2848C100.647 31.8659 100.214 32.4655 99.5961 33.0837ZM108.739 30.4131V17.338H111.633V23.0317H111.67L117.029 17.338H120.461L113.877 24.1815L113.895 22.9946L120.869 30.4131H117.326L111.67 24.4412H111.633V30.4131H108.739ZM119.461 30.4131L125.47 17.338H127.863L133.946 30.4131H131.016L129.439 26.778L130.571 27.5755H122.8L123.95 26.778L122.373 30.4131H119.461ZM126.657 20.3796L124.265 26.0547L123.764 25.35H129.606L129.18 26.0547L126.732 20.3796H126.657ZM135.074 30.4131V17.338H137.967V27.9835H143.864V30.4131H135.074ZM145.633 30.4131V17.338H148.526V30.4131H145.633ZM149.635 30.4131L155.644 17.338H158.037L164.12 30.4131H161.19L159.613 26.778L160.745 27.5755H152.974L154.124 26.778L152.547 30.4131H149.635ZM156.831 20.3796L154.439 26.0547L153.938 25.35H159.78L159.354 26.0547L156.905 20.3796H156.831ZM165.247 30.4131V17.338H167.399L174.502 26.37H174.001V17.338H176.69V30.4131H174.539L167.454 21.3811H167.937V30.4131H165.247ZM191.045 30.6171C189.549 30.6171 188.288 30.3451 187.262 29.8011C186.248 29.2447 185.481 28.4657 184.962 27.4642C184.443 26.4504 184.183 25.2696 184.183 23.9219C184.183 22.5371 184.461 21.3378 185.018 20.3239C185.586 19.3101 186.402 18.5249 187.466 17.9686C188.529 17.4122 189.802 17.134 191.286 17.134C192.238 17.134 193.073 17.2576 193.79 17.5049C194.519 17.7398 195.156 18.0798 195.7 18.5249L194.773 20.769C194.377 20.4847 194.006 20.2621 193.66 20.1014C193.314 19.9283 192.955 19.8108 192.584 19.749C192.213 19.6748 191.787 19.6377 191.305 19.6377C189.945 19.6377 188.918 20.0086 188.226 20.7505C187.546 21.48 187.206 22.5433 187.206 23.9404C187.206 25.3252 187.527 26.3762 188.17 27.0933C188.813 27.8104 189.821 28.169 191.193 28.169C191.651 28.169 192.121 28.1257 192.603 28.0392C193.085 27.9526 193.561 27.8228 194.031 27.6497L193.512 28.7625V25.2387H190.637V23.1801H195.904V29.5971C195.249 29.9185 194.488 30.172 193.623 30.3574C192.77 30.5305 191.911 30.6171 191.045 30.6171ZM196.852 30.4131L202.861 17.338H205.254L211.337 30.4131H208.406L206.83 26.778L207.961 27.5755H200.191L201.34 26.778L199.764 30.4131H196.852ZM204.048 20.3796L201.656 26.0547L201.155 25.35H206.997L206.57 26.0547L204.122 20.3796H204.048ZM210.925 30.4131L216.934 17.338H219.326L225.409 30.4131H222.479L220.903 26.778L222.034 27.5755H214.263L215.413 26.778L213.837 30.4131H210.925ZM218.121 20.3796L215.728 26.0547L215.228 25.35H221.07L220.643 26.0547L218.195 20.3796H218.121ZM226.537 30.4131V17.338H229.43V23.0317H229.467L234.827 17.338H238.258L231.674 24.1815L231.693 22.9946L238.666 30.4131H235.124L229.467 24.4412H229.43V30.4131H226.537ZM237.259 30.4131L243.268 17.338H245.661L251.744 30.4131H248.813L247.237 26.778L248.368 27.5755H240.597L241.747 26.778L240.171 30.4131H237.259ZM244.455 20.3796L242.063 26.0547L241.562 25.35H247.404L246.977 26.0547L244.529 20.3796H244.455ZM252.871 30.4131V17.338H255.022L262.126 26.37H261.625V17.338H264.314V30.4131H262.163L255.078 21.3811H255.56V30.4131H252.871ZM272.196 30.4131V17.338H278.224C279.658 17.338 280.765 17.6409 281.543 18.2468C282.322 18.8526 282.712 19.681 282.712 20.7319C282.712 21.5109 282.477 22.1724 282.007 22.7164C281.55 23.2604 280.919 23.6252 280.115 23.8106V23.5139C281.055 23.6746 281.778 24.0332 282.285 24.5896C282.805 25.1336 283.064 25.8445 283.064 26.7224C283.064 27.8846 282.65 28.7934 281.822 29.4487C281.006 30.0916 279.874 30.4131 278.428 30.4131H272.196ZM274.96 28.2617H278.075C278.792 28.2617 279.343 28.1257 279.726 27.8537C280.109 27.5817 280.301 27.1489 280.301 26.5555C280.301 25.9496 280.109 25.5169 279.726 25.2572C279.343 24.9852 278.792 24.8492 278.075 24.8492H274.96V28.2617ZM274.96 22.7164H277.704C278.459 22.7164 279.015 22.5804 279.374 22.3084C279.732 22.0364 279.911 21.6283 279.911 21.0843C279.911 20.5527 279.732 20.1508 279.374 19.8788C279.015 19.6068 278.459 19.4708 277.704 19.4708H274.96V22.7164ZM285.11 30.4131V17.338H288.003V30.4131H285.11ZM295.381 30.6171C294.33 30.6171 293.347 30.4873 292.432 30.2276C291.517 29.968 290.738 29.6094 290.095 29.1519L290.949 26.8893C291.369 27.1737 291.814 27.4148 292.284 27.6126C292.754 27.8104 293.248 27.965 293.768 28.0763C294.287 28.1752 294.831 28.2246 295.4 28.2246C296.29 28.2246 296.92 28.0886 297.291 27.8166C297.675 27.5446 297.866 27.1984 297.866 26.778C297.866 26.3947 297.736 26.1042 297.477 25.9063C297.23 25.6962 296.772 25.5169 296.104 25.3685L293.916 24.9234C292.717 24.6761 291.82 24.2557 291.227 23.6623C290.633 23.0688 290.337 22.2775 290.337 21.2883C290.337 20.4476 290.559 19.7181 291.004 19.0999C291.449 18.4817 292.074 17.9995 292.877 17.6533C293.693 17.3071 294.645 17.134 295.733 17.134C296.661 17.134 297.526 17.2638 298.33 17.5234C299.134 17.7831 299.795 18.154 300.314 18.6362L299.461 20.7505C298.954 20.3425 298.386 20.0396 297.755 19.8417C297.137 19.6315 296.444 19.5264 295.678 19.5264C294.874 19.5264 294.256 19.6686 293.823 19.953C293.403 20.2374 293.193 20.6269 293.193 21.1214C293.193 21.4923 293.322 21.7953 293.582 22.0302C293.842 22.2527 294.299 22.432 294.955 22.568L297.106 22.9946C298.33 23.2419 299.239 23.6561 299.832 24.2372C300.426 24.8183 300.722 25.5911 300.722 26.5555C300.722 27.3715 300.5 28.0824 300.055 28.6883C299.622 29.2941 299.004 29.7701 298.2 30.1163C297.409 30.4502 296.469 30.6171 295.381 30.6171ZM301.193 30.4131L307.202 17.338H309.594L315.678 30.4131H312.747L311.171 26.778L312.302 27.5755H304.531L305.681 26.778L304.105 30.4131H301.193ZM308.389 20.3796L305.996 26.0547L305.496 25.35H311.338L310.911 26.0547L308.463 20.3796H308.389ZM322.039 30.4131V17.338H328.067C329.501 17.338 330.608 17.6409 331.386 18.2468C332.165 18.8526 332.555 19.681 332.555 20.7319C332.555 21.5109 332.32 22.1724 331.85 22.7164C331.393 23.2604 330.762 23.6252 329.958 23.8106V23.5139C330.898 23.6746 331.621 24.0332 332.128 24.5896C332.648 25.1336 332.907 25.8445 332.907 26.7224C332.907 27.8846 332.493 28.7934 331.665 29.4487C330.849 30.0916 329.717 30.4131 328.271 30.4131H322.039ZM324.803 28.2617H327.918C328.635 28.2617 329.186 28.1257 329.569 27.8537C329.952 27.5817 330.144 27.1489 330.144 26.5555C330.144 25.9496 329.952 25.5169 329.569 25.2572C329.186 24.9852 328.635 24.8492 327.918 24.8492H324.803V28.2617ZM324.803 22.7164H327.547C328.302 22.7164 328.858 22.5804 329.217 22.3084C329.575 22.0364 329.754 21.6283 329.754 21.0843C329.754 20.5527 329.575 20.1508 329.217 19.8788C328.858 19.6068 328.302 19.4708 327.547 19.4708H324.803V22.7164ZM333.359 30.4131L339.368 17.338H341.76L347.844 30.4131H344.913L343.337 26.778L344.468 27.5755H336.697L337.847 26.778L336.271 30.4131H333.359ZM340.555 20.3796L338.163 26.0547L337.662 25.35H343.504L343.077 26.0547L340.629 20.3796H340.555ZM350.929 30.4131V24.2001L351.522 25.8507L345.792 17.338H349.13L352.728 22.939H352.134L355.732 17.338H358.96L353.247 25.8507L353.822 24.2001V30.4131H350.929ZM356.904 30.4131L362.913 17.338H365.306L371.389 30.4131H368.458L366.882 26.778L368.013 27.5755H360.242L361.392 26.778L359.816 30.4131H356.904ZM364.1 20.3796L361.708 26.0547L361.207 25.35H367.049L366.622 26.0547L364.174 20.3796H364.1ZM372.516 30.4131V17.338H378.451C379.922 17.338 381.06 17.6904 381.863 18.3951C382.667 19.0875 383.069 20.0581 383.069 21.3069C383.069 22.1229 382.883 22.8277 382.513 23.4212C382.154 24.0023 381.635 24.4536 380.955 24.775C380.287 25.0841 379.483 25.2387 378.544 25.2387L378.766 24.8307H379.527C380.058 24.8307 380.528 24.9729 380.936 25.2572C381.356 25.5416 381.703 25.9558 381.975 26.4998L383.922 30.4131H380.732L378.711 26.2031C378.562 25.8445 378.327 25.6096 378.006 25.4983C377.697 25.3747 377.338 25.3129 376.93 25.3129H375.409V30.4131H372.516ZM375.409 23.2357H377.95C378.704 23.2357 379.279 23.0811 379.675 22.772C380.071 22.4629 380.268 22.0055 380.268 21.3996C380.268 20.7938 380.071 20.3425 379.675 20.0457C379.279 19.7366 378.704 19.5821 377.95 19.5821H375.409V23.2357ZM394.553 30.4131L389.917 17.338H392.903L396.223 27.4271H395.425L399.042 17.338H401.156L404.476 27.4271H403.734L407.258 17.338H410.058L405.384 30.4131H403.029L399.82 21.1214H400.247L396.927 30.4131H394.553ZM409.065 30.4131L415.074 17.338H417.467L423.55 30.4131H420.62L419.043 26.778L420.175 27.5755H412.404L413.554 26.778L411.977 30.4131H409.065ZM416.261 20.3796L413.869 26.0547L413.368 25.35H419.21L418.784 26.0547L416.335 20.3796H416.261ZM424.677 30.4131V17.338H427.571V23.0317H427.608L432.968 17.338H436.399L429.815 24.1815L429.833 22.9946L436.807 30.4131H433.264L427.608 24.4412H427.571V30.4131H424.677ZM439.708 30.4131V19.6934H435.554V17.338H446.756V19.6934H442.602V30.4131H439.708ZM453.951 30.6171C452.034 30.6171 450.606 30.1411 449.666 29.189C448.727 28.237 448.257 26.8213 448.257 24.9419V17.338H451.15V24.9605C451.15 26.0114 451.373 26.8089 451.818 27.353C452.275 27.897 452.986 28.169 453.951 28.169C454.89 28.169 455.589 27.897 456.046 27.353C456.516 26.8089 456.751 26.0114 456.751 24.9605V17.338H459.607V24.9419C459.607 26.8213 459.131 28.237 458.179 29.189C457.239 30.1411 455.83 30.6171 453.951 30.6171ZM467.421 30.4131V17.338H469.962L474.506 27.5384H473.912L478.456 17.338H480.978V30.4131H478.345V21.5294H479.087L475.025 30.4131H473.356L469.276 21.5294H470.055V30.4131H467.421ZM483.667 30.4131V17.338H492.754V19.5821H486.43V22.6422H492.309V24.9049H486.43V28.169H492.754V30.4131H483.667ZM494.769 30.4131V17.338H500.704C502.175 17.338 503.313 17.6904 504.116 18.3951C504.92 19.0875 505.322 20.0581 505.322 21.3069C505.322 22.1229 505.136 22.8277 504.766 23.4212C504.407 24.0023 503.888 24.4536 503.208 24.775C502.54 25.0841 501.736 25.2387 500.797 25.2387L501.019 24.8307H501.78C502.311 24.8307 502.781 24.9729 503.189 25.2572C503.61 25.5416 503.956 25.9558 504.228 26.4998L506.175 30.4131H502.985L500.964 26.2031C500.815 25.8445 500.58 25.6096 500.259 25.4983C499.95 25.3747 499.591 25.3129 499.183 25.3129H497.662V30.4131H494.769ZM497.662 23.2357H500.203C500.957 23.2357 501.532 23.0811 501.928 22.772C502.324 22.4629 502.521 22.0055 502.521 21.3996C502.521 20.7938 502.324 20.3425 501.928 20.0457C501.532 19.7366 500.957 19.5821 500.203 19.5821H497.662V23.2357ZM507.9 30.4131V17.338H516.988V19.5821H510.663V22.6422H516.543V24.9049H510.663V28.169H516.988V30.4131H507.9ZM519.002 30.4131V17.338H521.896V23.0317H521.933L527.293 17.338H530.724L524.14 24.1815L524.158 22.9946L531.132 30.4131H527.589L521.933 24.4412H521.896V30.4131H519.002ZM529.725 30.4131L535.734 17.338H538.126L544.209 30.4131H541.279L539.702 26.778L540.834 27.5755H533.063L534.213 26.778L532.636 30.4131H529.725ZM536.921 20.3796L534.528 26.0547L534.027 25.35H539.869L539.443 26.0547L536.995 20.3796H536.921Z" fill="white"></path><defs><linearGradient id="paint0_linear_3845_6694" x1="281" y1="0" x2="281" y2="45.8261" gradientUnits="userSpaceOnUse"><stop stop-color="#197D00"></stop><stop offset="1" stop-color="#2EA70F"></stop></linearGradient></defs></svg>