<svg xmlns="http://www.w3.org/2000/svg" width="28" height="28" viewBox="0 0 28 28" fill="none"><path d="M12.1346 20.1337L21.5346 10.7337L19.668 8.86699L12.1346 16.4003L8.33464 12.6003L6.46797 14.467L12.1346 20.1337ZM14.0013 27.3337C12.1569 27.3337 10.4235 26.9834 8.8013 26.283C7.17908 25.5825 5.76797 24.6328 4.56797 23.4337C3.36797 22.2337 2.41819 20.8225 1.71864 19.2003C1.01908 17.5781 0.668858 15.8448 0.667969 14.0003C0.667969 12.1559 1.01819 10.4225 1.71864 8.80033C2.41908 7.1781 3.36886 5.76699 4.56797 4.56699C5.76797 3.36699 7.17908 2.41721 8.8013 1.71766C10.4235 1.0181 12.1569 0.667881 14.0013 0.666992C15.8457 0.666992 17.5791 1.01721 19.2013 1.71766C20.8235 2.4181 22.2346 3.36788 23.4346 4.56699C24.6346 5.76699 25.5849 7.1781 26.2853 8.80033C26.9857 10.4225 27.3355 12.1559 27.3346 14.0003C27.3346 15.8448 26.9844 17.5781 26.284 19.2003C25.5835 20.8225 24.6337 22.2337 23.4346 23.4337C22.2346 24.6337 20.8235 25.5839 19.2013 26.2843C17.5791 26.9848 15.8457 27.3345 14.0013 27.3337Z" fill="#04D9FB"></path></svg>